<?xml version="1.0" encoding="utf-8"?>
<!-- Generator: Adobe Illustrator 15.0.0, SVG Export Plug-In . SVG Version: 6.00 Build 0)  -->
<!DOCTYPE svg PUBLIC "-//W3C//DTD SVG 1.1//EN" "http://www.w3.org/Graphics/SVG/1.1/DTD/svg11.dtd">
<svg version="1.1" xmlns="http://www.w3.org/2000/svg" xmlns:xlink="http://www.w3.org/1999/xlink" x="0px" y="0px"
	 width="141.732px" height="141.732px" viewBox="0 0 141.732 141.732" enable-background="new 0 0 141.732 141.732"
	 xml:space="preserve">
<g id="Layer_1" display="none">
	<polygon display="inline" fill="#E6A329" points="111.142,36.396 70.866,36.396 30.591,36.396 38.139,118.281 70.866,127.559 
		103.582,118.281 	"/>
	<polygon display="inline" fill="#F1BF22" points="70.866,43.066 70.866,120.625 97.368,113.112 103.822,43.066 	"/>
	<polygon display="inline" fill="#FFFFFF" points="91.951,53.114 51.188,53.114 48.355,83.774 48.415,83.582 83.041,83.582 
		81.911,96.55 70.866,99.735 59.652,96.502 58.979,88.654 48.799,88.654 50.254,104.338 70.866,110.192 91.479,104.338 
		94.315,73.558 57.573,73.558 58.041,63.294 83.544,63.294 83.919,69.169 94.19,69.169 	"/>
	<path display="inline" fill="#EBEBEB" d="M70.866,53.114H51.188l-2.833,30.66l0.061-0.192h22.451V73.558H58.991l0.468-10.264
		h11.408V53.114z M58.979,88.654h-10.18l1.454,15.685l20.613,5.841V99.735l-11.214-3.232L58.979,88.654z"/>
	<polygon display="inline" points="63.028,24.317 55.865,24.317 55.865,29.461 63.028,29.461 66.863,29.461 68.161,29.461 
		68.161,14.173 63.028,14.173 	"/>
	<g display="inline">
		<defs>
			<rect id="SVGID_1_" width="141.732" height="141.732"/>
		</defs>
		<clipPath id="SVGID_2_">
			<use xlink:href="#SVGID_1_"  overflow="visible"/>
		</clipPath>
		<path clip-path="url(#SVGID_2_)" d="M85.868,14.25H73.374v5.354c1.67,1.671,2.543,2.471,4.961,4.889
			c-1.414,0-4.961,0.005-4.961,0.005v4.884h12.494v-4.885l-4.99-4.893h4.99V14.25z"/>
	</g>
</g>
<g id="Layer_2" display="none">
	<g display="inline">
		<g>
			<polygon fill="#010101" points="59.71,19.586 59.71,14.352 47.227,14.352 47.227,29.654 59.71,29.654 59.71,24.419 
				52.461,24.419 52.461,19.586 			"/>
			<polygon fill="#010101" points="77.43,14.352 64.945,14.352 64.945,19.725 70.154,24.419 64.945,24.419 64.945,29.654 
				77.43,29.654 77.43,24.559 72.694,19.586 77.43,19.586 			"/>
			<polygon fill="#010101" points="95.552,14.352 83.067,14.352 83.067,19.725 88.075,24.419 83.067,24.419 83.067,29.654 
				95.552,29.654 95.552,24.559 90.614,19.586 95.552,19.586 			"/>
		</g>
		<polygon fill="#1072BA" points="38.448,118.848 31.118,36.639 111.659,36.639 104.323,118.833 71.34,127.979 		"/>
		<polygon fill="#2AAAE2" points="71.457,120.984 98.076,113.663 104.312,43.485 71.457,43.485 		"/>
		<polygon fill="#B4B4B4" points="47.896,73.687 48.779,83.756 71.457,73.687 71.457,63.604 		"/>
		<polygon fill="#E6E6E5" points="96.574,52.84 71.457,63.604 71.457,73.687 95.707,62.908 		"/>
		<polygon fill="#E6E6E5" points="71.457,100.029 71.38,100.042 60.132,97.021 59.397,88.992 49.276,88.992 50.688,104.812 
			71.376,110.54 71.457,110.522 		"/>
		<polygon fill="#FFFFFF" points="71.457,73.687 71.457,83.756 83.771,83.756 82.65,96.918 71.457,100.04 71.457,110.529 
			92.076,104.8 94.791,73.687 		"/>
		<polygon fill="#E6E6E5" points="71.457,73.687 47.896,73.687 48.779,83.756 71.457,83.756 		"/>
		<polygon fill="#E6E6E5" points="71.457,62.908 71.457,52.84 71.354,52.84 46.106,52.84 46.999,62.908 		"/>
		<polygon fill="#FFFFFF" points="71.457,52.84 71.457,62.781 71.457,62.908 95.707,62.908 96.574,52.84 		"/>
	</g>
</g>
<g id="Layer_3" display="none">
	<polygon display="inline" fill="#E44F26" points="37.755,119.382 30.384,36.701 111.383,36.701 104.004,119.369 70.835,128.565 	
		"/>
	<polygon display="inline" fill="#F1662A" points="70.884,121.536 97.688,114.103 103.993,43.462 70.884,43.462 	"/>
	<polygon display="inline" fill="#EBEBEB" points="70.884,74.127 57.465,74.127 56.539,63.744 70.884,63.744 70.884,53.601 
		70.849,53.601 45.456,53.601 45.699,56.323 48.191,84.266 70.884,84.266 	"/>
	<polygon display="inline" fill="#EBEBEB" points="70.884,100.464 70.84,100.473 59.545,97.424 58.824,89.339 53.336,89.339 
		48.645,89.339 50.065,105.26 70.837,111.026 70.884,111.013 	"/>
	<path display="inline" fill="#010101" d="M37.919,14.232h5.154v5.091h4.714v-5.091h5.153V29.65h-5.153v-5.163h-4.714v5.163H37.92
		V14.232H37.919z"/>
	<path display="inline" fill="#010101" d="M59.717,19.345h-4.536v-5.113h14.229v5.113h-4.538V29.65h-5.154V19.345L59.717,19.345z"/>
	<path display="inline" fill="#010101" d="M71.668,14.232h5.374l3.306,5.417l3.3-5.417h5.377V29.65h-5.131v-7.643l-3.546,5.482
		h-0.09l-3.548-5.482v7.643h-5.042V14.232z"/>
	<path display="inline" fill="#010101" d="M91.588,14.232h5.155v10.321h7.248v5.097H91.588V14.232z"/>
	<polygon display="inline" fill="#FFFFFF" points="70.849,74.127 70.849,84.266 83.335,84.266 82.158,97.418 70.849,100.471 
		70.849,111.022 91.638,105.26 91.79,103.545 94.173,76.849 94.42,74.127 91.687,74.127 	"/>
	<polygon display="inline" fill="#FFFFFF" points="70.849,53.601 70.849,59.9 70.849,63.717 70.849,63.744 95.31,63.744 
		95.31,63.744 95.343,63.744 95.546,61.464 96.008,56.323 96.251,53.601 	"/>
</g>
<g id="Layer_4" display="none">
	<g display="inline">
		<path fill-rule="evenodd" clip-rule="evenodd" d="M9.097,88.016c0,0.812,0,1.709-0.706,2.713c-0.595,0.775-1.522,1.407-2.75,1.407
			c-1.002,0-1.894-0.445-2.491-1.037c-1-1.04-1.035-2.23-1.073-3.121V49.352c0.039-0.894,0.073-2.083,1.073-3.119
			c0.598-0.596,1.489-1.044,2.491-1.044c1.228,0,2.155,0.634,2.75,1.413c0.706,1.004,0.706,1.893,0.706,2.708V88.016L9.097,88.016z"
			/>
		<path fill-rule="evenodd" clip-rule="evenodd" d="M20.81,88.016c0,0.812,0,1.709-0.706,2.713
			c-0.593,0.775-1.521,1.407-2.745,1.407c-1.004,0-1.895-0.445-2.492-1.037c-1.002-1.04-1.036-2.23-1.072-3.121V49.352
			c0.036-0.894,0.069-2.083,1.072-3.119c0.597-0.596,1.487-1.044,2.492-1.044c1.224,0,2.151,0.634,2.745,1.413
			c0.706,1.004,0.706,1.893,0.706,2.708V88.016L20.81,88.016z"/>
		<path fill-rule="evenodd" clip-rule="evenodd" d="M32.529,80.511c0,0.818,0,1.713-0.707,2.713
			c-0.594,0.783-1.519,1.415-2.748,1.415c-1.004,0-1.896-0.451-2.49-1.037c-1.001-1.044-1.038-2.234-1.072-3.125V41.853
			c0.035-0.896,0.071-2.087,1.072-3.123c0.595-0.595,1.486-1.039,2.49-1.039c1.229,0,2.154,0.635,2.748,1.409
			c0.707,1.004,0.707,1.895,0.707,2.712V80.511L32.529,80.511z"/>
		<path fill-rule="evenodd" clip-rule="evenodd" d="M44.243,88.016c0,0.812,0,1.709-0.706,2.713
			c-0.593,0.775-1.52,1.407-2.744,1.407c-1.01,0-1.896-0.445-2.49-1.037c-1.005-1.04-1.038-2.23-1.075-3.121V49.352
			c0.037-0.894,0.069-2.083,1.075-3.119c0.593-0.596,1.48-1.044,2.49-1.044c1.224,0,2.151,0.634,2.744,1.413
			c0.706,1.004,0.706,1.893,0.706,2.708V88.016L44.243,88.016z"/>
		<path fill-rule="evenodd" clip-rule="evenodd" d="M55.961,80.511c0,0.818,0,1.713-0.704,2.713
			c-0.597,0.783-1.527,1.415-2.754,1.415c-1.001,0-1.887-0.451-2.482-1.037c-1.005-1.044-1.04-2.234-1.083-3.125V41.853
			c0.043-0.896,0.078-2.087,1.083-3.123c0.596-0.595,1.481-1.039,2.482-1.039c1.227,0,2.158,0.635,2.754,1.409
			c0.704,1.004,0.704,1.895,0.704,2.712V80.511L55.961,80.511z"/>
		<path fill-rule="evenodd" clip-rule="evenodd" d="M67.675,88.016c0,0.812,0,1.709-0.708,2.713
			c-0.59,0.775-1.518,1.407-2.747,1.407c-0.999,0-1.895-0.445-2.485-1.037c-1.001-1.04-1.039-2.23-1.079-3.121V49.352
			c0.04-0.894,0.078-2.083,1.079-3.119c0.59-0.596,1.486-1.044,2.485-1.044c1.229,0,2.156,0.634,2.747,1.413
			c0.708,1.004,0.708,1.893,0.708,2.708V88.016L67.675,88.016z"/>
		<path fill-rule="evenodd" clip-rule="evenodd" d="M79.394,88.016c0,0.812,0,1.709-0.708,2.713
			c-0.591,0.775-1.517,1.407-2.746,1.407c-1.004,0-1.895-0.445-2.488-1.037c-1.005-1.04-1.042-2.23-1.08-3.121V49.352
			c0.038-0.894,0.075-2.083,1.08-3.119c0.594-0.596,1.484-1.044,2.488-1.044c1.229,0,2.155,0.634,2.746,1.413
			c0.708,1.004,0.708,1.893,0.708,2.708V88.016L79.394,88.016z"/>
		<path fill-rule="evenodd" clip-rule="evenodd" d="M136.209,56.928c0.82,0,1.709,0,2.71,0.705c0.777,0.595,1.413,1.522,1.413,2.748
			c0,1.003-0.444,1.896-1.039,2.49c-1.035,0.998-2.229,1.035-3.119,1.074H87.339c-0.896-0.039-2.086-0.076-3.124-1.074
			c-0.591-0.594-1.035-1.487-1.035-2.49c0-1.226,0.633-2.153,1.408-2.748c1.005-0.705,1.897-0.705,2.709-0.705H136.209
			L136.209,56.928z"/>
		<path fill-rule="evenodd" clip-rule="evenodd" d="M136.209,45.21c0.82,0,1.709,0,2.71,0.704c0.777,0.59,1.413,1.521,1.413,2.75
			c0,1-0.444,1.89-1.039,2.484c-1.035,1.007-2.229,1.044-3.119,1.078H87.339c-0.896-0.034-2.086-0.071-3.124-1.078
			c-0.591-0.594-1.035-1.483-1.035-2.484c0-1.229,0.633-2.16,1.408-2.75c1.005-0.704,1.897-0.704,2.709-0.704H136.209L136.209,45.21
			z"/>
		<path fill-rule="evenodd" clip-rule="evenodd" d="M136.209,80.368c0.82,0,1.709,0,2.71,0.702c0.777,0.594,1.413,1.524,1.413,2.746
			c0,1.004-0.444,1.895-1.039,2.491c-1.035,0.999-2.229,1.035-3.119,1.077H87.339c-0.896-0.042-2.086-0.078-3.124-1.077
			c-0.591-0.597-1.035-1.487-1.035-2.491c0-1.222,0.633-2.152,1.408-2.746c1.005-0.702,1.897-0.702,2.709-0.702H136.209
			L136.209,80.368z"/>
		<path fill-rule="evenodd" clip-rule="evenodd" d="M136.209,68.647c0.82,0,1.709,0,2.71,0.704c0.777,0.592,1.413,1.519,1.413,2.746
			c0,1.007-0.444,1.896-1.039,2.492c-1.035,1-2.229,1.041-3.119,1.077H87.339c-0.896-0.036-2.086-0.077-3.124-1.077
			c-0.591-0.597-1.035-1.485-1.035-2.492c0-1.227,0.633-2.153,1.408-2.746c1.005-0.704,1.897-0.704,2.709-0.704H136.209
			L136.209,68.647z"/>
		<path fill-rule="evenodd" clip-rule="evenodd" d="M25.575,112.731c0,0.856,0,1.896,0.67,2.786c0.6,0.779,1.602,1.265,2.604,1.265
			c1.891,0,2.674-1.23,3.079-1.935c1.596,1.483,3.235,2.048,5.424,2.048c5.238,0,8.615-4.057,8.615-10.029
			c0-7.169-4.42-10.139-8.321-10.139c-2.038,0-4.045,0.704-5.198,2.338v-5.869c0-2.336-1.784-3.453-3.376-3.453
			c-0.708,0-1.893,0.182-2.713,1.34c-0.669,0.893-0.743,1.827-0.782,3.602V112.731L25.575,112.731z M35.379,101.481
			c0.928,0,1.894,0.445,2.53,1.521c0.514,0.859,0.816,2.151,0.816,3.711c0,1.603-0.257,3.602-1.267,4.609
			c-0.523,0.522-1.295,0.814-2.04,0.814c-3.123,0-3.192-3.973-3.192-5.239c0-1.256,0.069-3.784,1.558-4.896
			C34.228,101.661,34.827,101.481,35.379,101.481L35.379,101.481z"/>
		<path fill-rule="evenodd" clip-rule="evenodd" d="M78.593,108.463c1.522,0,2.188-1.187,2.188-2.822
			c0-4.269-2.898-8.991-9.584-8.991c-6.794,0-10.023,4.529-10.023,9.997c0,5.078,2.672,10.389,9.949,10.389
			c5.798,0,8.584-3.154,8.584-4.935c0-1.451-1.339-2.6-2.932-2.6c-0.86,0-1.414,0.371-1.83,0.705
			c-0.515,0.407-0.922,0.895-1.484,1.227c-0.52,0.371-1.223,0.596-2.005,0.596c-3.042,0-3.376-2.752-3.451-3.565H78.593
			L78.593,108.463z M67.966,104.715c0.19-1.236,0.671-2.238,1.713-2.755c0.409-0.217,0.932-0.334,1.488-0.334
			c1.708,0,2.372,1.113,2.52,1.413c0.296,0.559,0.37,1.079,0.448,1.676H67.966L67.966,104.715z"/>
		<path fill-rule="evenodd" clip-rule="evenodd" d="M108.365,96.606c-5.277,0-10.361,2.793-10.361,10.075
			c0,2.894,0.669,5.307,2.522,7.427c0.896,1.038,2.901,2.974,7.58,2.974c5.831,0,10.362-3.2,10.362-10.216
			C118.469,102,115.874,96.606,108.365,96.606L108.365,96.606z M108.292,101.706c1.415,0,2.082,0.771,2.527,1.668
			c0.447,0.966,0.668,2.188,0.668,3.683c0,1.632-0.221,4.899-3.23,4.899c-3.164,0-3.275-3.979-3.275-5.203
			C104.981,105.562,105.066,101.706,108.292,101.706L108.292,101.706z"/>
		<path fill-rule="evenodd" clip-rule="evenodd" d="M121.397,100.703c0.035-0.708,0.035-1.449,0.408-2.157
			c0.521-1.007,1.526-1.675,2.786-1.675c0.962,0,1.747,0.377,2.341,1.004c0.777,0.822,0.854,1.602,0.928,2.193
			c0.401-0.519,0.742-0.97,1.373-1.522c1.302-1.152,3.046-1.705,4.79-1.705c1.781,0,3.526,0.698,4.677,2.075
			c1.112,1.338,1.265,2.565,1.265,3.824v10.029c0,0.782-0.072,1.594-0.629,2.525c-0.636,0.927-1.678,1.487-2.79,1.487
			s-2.005-0.406-2.675-1.376c-0.701-0.968-0.773-1.818-0.773-2.746v-7.726c0-0.559,0-1.19-0.338-1.777
			c-0.367-0.749-1.112-1.156-1.932-1.156c-0.629,0-1.144,0.219-1.558,0.553c-0.923,0.82-0.972,2.27-0.972,3.752v6.579
			c0,0.63-0.068,1.554-0.667,2.41c-0.625,0.927-1.663,1.487-2.854,1.487c-1.413-0.034-2.527-0.854-3.001-1.817
			c-0.344-0.711-0.379-1.45-0.379-2.08V100.703L121.397,100.703z"/>
		<path fill-rule="evenodd" clip-rule="evenodd" d="M55.955,109.831c0,0.597,0,1.189,0.855,1.376
			c0.186,0.035,1.188,0.111,1.409,0.183c0.711,0.223,1.559,1.083,1.559,2.486c0,3.16-3.414,3.16-4.014,3.16
			c-0.96,0-1.927-0.077-2.853-0.302c-3.793-0.958-4.017-3.822-4.017-6.044l0.038-16.785c0.04-0.893,0.077-2.083,1.08-3.124
			c0.592-0.589,1.483-1.038,2.488-1.038c1.227,0,2.153,0.631,2.75,1.411c0.704,1.004,0.704,1.889,0.704,2.712V109.831
			L55.955,109.831z"/>
		<path fill-rule="evenodd" clip-rule="evenodd" d="M12.136,101.644c1.234,0,2.094,0.785,2.5,1.645
			c0.414,0.82,0.643,2.354,0.643,3.81c0,3.212-0.979,4.144-1.459,4.52c-0.673,0.561-1.381,0.634-1.792,0.634
			c-1.539,0-2.403-1.12-2.788-2.241c-0.194-0.414-0.451-1.271-0.451-2.954c0-1.114,0.187-2.681,0.807-3.798
			C10.422,101.79,11.612,101.644,12.136,101.644L12.136,101.644z M15.163,99.301c-1.304-1.837-3.247-2.437-5.159-2.437
			c-5.893,0-8.353,5.153-8.353,10.233c0,6.311,3.657,9.785,8.036,9.785c3.573,0,4.995-1.873,5.664-2.743
			c0.15,1.914,1.925,2.642,3.099,2.642c1.155,0,2.357-0.575,2.988-1.811c0.444-0.931,0.487-2.085,0.487-3.24l-0.026-9.955
			c0-1.185-0.036-2.373-0.494-3.323c-0.654-1.265-1.875-1.847-3.068-1.847C17.157,96.606,15.313,97.337,15.163,99.301L15.163,99.301
			z"/>
		<path fill-rule="evenodd" clip-rule="evenodd" d="M85.57,95.235c0.039-0.972,0.115-2.045,0.965-3.051
			c0.333-0.364,1.08-1.111,2.449-1.111c1.709,0,3.382,1.15,3.382,3.715v2.373h1.485c1.523,0.04,2.411,0.818,2.455,2.343
			c0,0.779-0.299,1.447-0.784,1.817c-0.636,0.557-1.524,0.522-3.156,0.488v8.021c0,0.597,0,1.189,0.852,1.376
			c0.192,0.035,1.192,0.111,1.412,0.188c0.707,0.219,1.563,1.077,1.563,2.48c0,3.16-3.417,3.16-4.013,3.16
			c-0.966,0-1.928-0.077-2.863-0.302c-3.785-0.958-4.006-3.822-4.006-6.044c0-2.34,0.109-6.504,0.149-8.847
			c-1.228,0.034-1.711,0-2.111-0.109c-1.005-0.334-1.416-1.344-1.416-2.306c0-0.227,0-0.445,0.067-0.739
			c0.415-1.417,1.6-1.455,2.194-1.488h1.375V95.235L85.57,95.235z"/>
	</g>
</g>
<g id="Layer_5" display="none">
	<g display="inline">
		<polygon fill="#B4B4B4" points="70.702,26.941 27.221,42.243 34.092,99.208 70.748,119.357 107.593,98.936 114.462,41.972 		"/>
		<polygon fill="#A51E22" points="110.124,45.264 70.601,31.787 70.601,114.542 103.724,96.21 		"/>
		<polygon fill="#DC2226" points="32.1,45.508 37.988,96.456 70.6,114.542 70.6,31.785 		"/>
		<path fill="#F3F3F3" d="M81.48,75.841l-10.88,5.088H59.134l-5.39,13.481l-10.027,0.187l26.884-59.806L81.48,75.841z
			 M80.429,73.281l-9.756-19.314L62.67,72.948h7.93L80.429,73.281z"/>
		<polygon fill="#B4B4B4" points="70.6,34.792 70.672,53.967 79.753,72.963 70.62,72.963 70.6,80.917 83.228,80.929 89.128,94.599 
			98.722,94.776 		"/>
	</g>
</g>
<g id="Layer_6" display="none">
	
		<radialGradient id="SVGID_3_" cx="17.6357" cy="63.9834" r="87.8238" gradientTransform="matrix(1 0 0 1 26.52 -9.3066)" gradientUnits="userSpaceOnUse">
		<stop  offset="0" style="stop-color:#FFFFFF"/>
		<stop  offset="0.5" style="stop-color:#4C6B97"/>
		<stop  offset="1" style="stop-color:#000000"/>
	</radialGradient>
	<ellipse display="inline" fill="url(#SVGID_3_)" cx="70.881" cy="77.489" rx="66.881" ry="35.182"/>
	<ellipse display="inline" fill="#6181B6" cx="70.881" cy="77.489" rx="64.27" ry="32.57"/>
	<g display="inline">
		<path fill="#FFFFFF" d="M83.9,88.016l3.188-16.407c0.721-3.703,0.121-6.466-1.777-8.211c-1.84-1.689-4.961-2.51-9.546-2.51h-5.521
			l1.58-8.13c0.06-0.306-0.021-0.623-0.219-0.863c-0.199-0.241-0.496-0.381-0.808-0.381h-7.62c-0.5,0-0.931,0.354-1.026,0.846
			l-3.385,17.418c-0.309-1.959-1.066-3.645-2.281-5.034c-2.235-2.559-5.771-3.856-10.508-3.856h-14.77
			c-0.5,0-0.931,0.355-1.026,0.846L23.33,96.991c-0.06,0.308,0.021,0.623,0.219,0.864c0.199,0.24,0.495,0.381,0.807,0.381h7.681
			c0.5,0,0.93-0.354,1.026-0.846l1.657-8.529h5.717c3,0,5.52-0.324,7.488-0.965c2.012-0.654,3.863-1.764,5.496-3.292
			c1.319-1.212,2.409-2.568,3.248-4.032l-1.37,7.046c-0.06,0.306,0.021,0.623,0.22,0.863c0.198,0.241,0.494,0.38,0.806,0.38h7.621
			c0.5,0,0.93-0.354,1.025-0.845l3.761-19.354h5.229c2.229,0,2.881,0.445,3.057,0.635c0.162,0.174,0.496,0.787,0.121,2.72
			l-3.031,15.601c-0.06,0.306,0.021,0.623,0.219,0.863c0.199,0.241,0.494,0.38,0.807,0.38h7.742
			C83.373,88.861,83.805,88.507,83.9,88.016z M48.573,74.459c-0.479,2.46-1.38,4.215-2.681,5.215
			c-1.322,1.018-3.435,1.534-6.282,1.534h-3.404l2.462-12.667h4.4c3.233,0,4.536,0.691,5.059,1.271
			C48.853,70.616,49.007,72.224,48.573,74.459z"/>
		<path fill="#FFFFFF" d="M116.486,64.744c-2.234-2.559-5.771-3.856-10.51-3.856H91.209c-0.502,0-0.932,0.355-1.027,0.846
			L83.33,96.991c-0.061,0.308,0.02,0.623,0.219,0.864c0.199,0.24,0.494,0.381,0.807,0.381h7.68c0.502,0,0.932-0.354,1.027-0.846
			l1.656-8.529h5.717c3,0,5.521-0.324,7.488-0.965c2.014-0.654,3.865-1.764,5.496-3.292c1.363-1.252,2.484-2.655,3.332-4.175
			c0.848-1.517,1.457-3.209,1.811-5.031C119.436,70.905,118.738,67.321,116.486,64.744z M108.52,74.459
			c-0.477,2.46-1.379,4.215-2.68,5.215c-1.322,1.018-3.436,1.534-6.281,1.534h-3.404l2.461-12.667h4.402
			c3.232,0,4.535,0.691,5.059,1.271C108.801,70.616,108.955,72.224,108.52,74.459z"/>
	</g>
	<g display="inline">
		<path d="M43.069,67.497c2.918,0,4.863,0.539,5.835,1.616c0.971,1.077,1.203,2.926,0.694,5.547
			c-0.531,2.729-1.553,4.677-3.069,5.844c-1.516,1.166-3.822,1.749-6.919,1.749h-4.671l2.867-14.756H43.069z M24.356,97.191h7.68
			l1.822-9.375h6.579c2.902,0,5.291-0.303,7.166-0.914c1.875-0.608,3.579-1.632,5.112-3.066c1.287-1.184,2.329-2.489,3.125-3.915
			c0.797-1.427,1.363-3,1.697-4.722c0.812-4.181,0.2-7.436-1.837-9.767c-2.038-2.333-5.279-3.499-9.722-3.499h-14.77L24.356,97.191z
			"/>
		<path d="M63.178,52.559h7.62l-1.822,9.374h6.789c4.271,0,7.218,0.745,8.839,2.235s2.107,3.905,1.459,7.242l-3.188,16.406h-7.742
			l3.031-15.6c0.346-1.774,0.219-2.984-0.379-3.63c-0.6-0.645-1.875-0.968-3.824-0.968h-6.09l-3.925,20.198h-7.621L63.178,52.559z"
			/>
		<path d="M103.018,67.497c2.916,0,4.861,0.539,5.834,1.616s1.203,2.926,0.695,5.547c-0.531,2.729-1.553,4.677-3.07,5.844
			c-1.516,1.166-3.822,1.749-6.918,1.749h-4.672l2.867-14.756H103.018z M84.303,97.191h7.682l1.82-9.375h6.58
			c2.902,0,5.289-0.303,7.164-0.914c1.875-0.608,3.578-1.632,5.111-3.066c1.289-1.184,2.33-2.489,3.127-3.915
			c0.797-1.427,1.363-3,1.697-4.722c0.812-4.181,0.201-7.436-1.838-9.767c-2.037-2.333-5.277-3.499-9.721-3.499h-14.77
			L84.303,97.191z"/>
	</g>
</g>
<g id="Layer_7" display="none">
	<g display="inline">
		<path fill="#5D87A1" d="M35.763,104.932h-5.177c-0.183-8.737-0.687-16.954-1.512-24.65h-0.045l-7.881,24.65h-3.942l-7.834-24.65
			H9.326c-0.581,7.394-0.946,15.608-1.098,24.65h-4.72c0.305-10.997,1.068-21.306,2.291-30.928h6.416l7.468,22.725h0.046
			l7.514-22.725h6.139C34.726,85.274,35.519,95.585,35.763,104.932"/>
		<path fill="#5D87A1" d="M58.214,82.114c-2.107,11.438-4.888,19.75-8.339,24.935c-2.689,3.995-5.635,5.993-8.843,5.993
			c-0.855,0-1.91-0.257-3.161-0.77v-2.758c0.611,0.09,1.329,0.138,2.154,0.138c1.497,0,2.703-0.413,3.621-1.238
			c1.098-1.007,1.648-2.137,1.648-3.39c0-0.855-0.429-2.611-1.283-5.268l-5.681-17.643h5.085l4.078,13.194
			c0.917,2.995,1.298,5.088,1.146,6.278c2.23-5.956,3.788-12.447,4.674-19.473H58.214z"/>
		<polygon fill="#F8971D" points="127.123,104.932 112.416,104.932 112.416,74.004 117.365,74.004 117.365,101.127 127.123,101.127 
					"/>
		<path fill-rule="evenodd" clip-rule="evenodd" fill="#F8971D" d="M108.568,105.678l-5.685-2.803
			c0.506-0.416,0.985-0.864,1.422-1.382c2.414-2.838,3.62-7.037,3.62-12.598c0-10.231-4.016-15.351-12.049-15.351
			c-3.941,0-7.012,1.297-9.211,3.896c-2.414,2.84-3.619,7.024-3.619,12.554c0,5.438,1.068,9.427,3.205,11.959
			c1.956,2.291,4.904,3.437,8.846,3.437c1.472,0,2.821-0.181,4.049-0.544l7.404,4.308L108.568,105.678z M90.148,98.746
			c-1.252-2.017-1.879-5.252-1.879-9.712c0-7.789,2.368-11.686,7.102-11.686c2.476,0,4.292,0.933,5.453,2.794
			c1.252,2.018,1.88,5.224,1.88,9.623c0,7.851-2.369,11.776-7.102,11.776C93.127,101.542,91.31,100.612,90.148,98.746"/>
		<path fill="#F8971D" d="M80.891,96.361c0,2.622-0.964,4.775-2.886,6.46c-1.922,1.678-4.504,2.519-7.739,2.519
			c-3.026,0-5.958-0.968-8.798-2.889l1.329-2.655c2.444,1.221,4.656,1.831,6.643,1.831c1.862,0,3.32-0.414,4.374-1.233
			c1.055-0.826,1.685-1.976,1.685-3.435c0-1.838-1.281-3.407-3.631-4.723c-2.17-1.192-6.505-3.677-6.505-3.677
			c-2.35-1.714-3.527-3.553-3.527-6.582c0-2.505,0.877-4.53,2.633-6.07c1.757-1.544,4.026-2.317,6.803-2.317
			c2.871,0,5.482,0.768,7.834,2.294l-1.194,2.653c-2.013-0.853-3.997-1.281-5.953-1.281c-1.586,0-2.81,0.383-3.663,1.149
			c-0.858,0.76-1.387,1.737-1.387,2.93c0,1.832,1.308,3.421,3.725,4.762c2.196,1.191,6.637,3.726,6.637,3.726
			C79.687,91.533,80.891,93.355,80.891,96.361"/>
		<path fill-rule="evenodd" clip-rule="evenodd" fill="#5D87A1" d="M133.333,63.644c-2.99-0.075-5.308,0.224-7.249,1.046
			c-0.561,0.223-1.456,0.223-1.534,0.934c0.301,0.298,0.338,0.784,0.601,1.196c0.447,0.747,1.231,1.754,1.942,2.28
			c0.785,0.598,1.569,1.194,2.394,1.717c1.456,0.9,3.101,1.422,4.518,2.317c0.826,0.523,1.645,1.195,2.47,1.758
			c0.41,0.298,0.67,0.786,1.194,0.971v-0.115c-0.263-0.334-0.337-0.82-0.597-1.195c-0.374-0.371-0.748-0.71-1.122-1.082
			c-1.084-1.456-2.431-2.727-3.885-3.773c-1.197-0.823-3.815-1.945-4.299-3.324c0,0-0.037-0.04-0.075-0.076
			c0.821-0.076,1.796-0.376,2.58-0.602c1.269-0.335,2.427-0.259,3.733-0.595c0.6-0.151,1.198-0.338,1.798-0.522V64.24
			c-0.675-0.671-1.159-1.569-1.87-2.204c-1.903-1.644-3.999-3.249-6.166-4.597c-1.16-0.748-2.655-1.231-3.89-1.868
			c-0.444-0.225-1.191-0.335-1.454-0.711c-0.673-0.822-1.048-1.904-1.533-2.877c-1.082-2.053-2.131-4.332-3.063-6.502
			c-0.672-1.457-1.083-2.913-1.906-4.259c-3.851-6.354-8.035-10.201-14.461-13.976c-1.385-0.786-3.028-1.122-4.783-1.533
			c-0.936-0.039-1.868-0.112-2.802-0.149c-0.6-0.263-1.199-0.973-1.723-1.309c-2.129-1.344-7.621-4.259-9.19-0.411
			c-1.009,2.431,1.493,4.821,2.354,6.055c0.635,0.858,1.459,1.832,1.904,2.802c0.261,0.635,0.337,1.309,0.6,1.98
			c0.597,1.644,1.157,3.476,1.942,5.009c0.411,0.785,0.859,1.608,1.381,2.314c0.303,0.414,0.824,0.599,0.937,1.273
			c-0.522,0.746-0.563,1.868-0.861,2.802c-1.344,4.223-0.822,9.455,1.084,12.557c0.598,0.934,2.019,2.99,3.925,2.203
			c1.682-0.671,1.309-2.802,1.794-4.669c0.111-0.452,0.037-0.749,0.261-1.046V55.2c0.521,1.044,1.046,2.051,1.533,3.101
			c1.158,1.829,3.175,3.736,4.858,5.005c0.896,0.675,1.604,1.832,2.727,2.244v-0.112h-0.075c-0.225-0.335-0.56-0.486-0.858-0.747
			c-0.673-0.673-1.419-1.496-1.944-2.243c-1.569-2.092-2.952-4.41-4.185-6.801c-0.599-1.161-1.121-2.431-1.606-3.588
			c-0.225-0.446-0.225-1.12-0.599-1.344c-0.562,0.821-1.382,1.532-1.794,2.538c-0.709,1.608-0.782,3.589-1.047,5.645
			c-0.149,0.04-0.074,0-0.149,0.075c-1.194-0.299-1.604-1.532-2.055-2.575c-1.12-2.656-1.31-6.917-0.337-9.981
			c0.262-0.783,1.387-3.249,0.935-3.997c-0.225-0.713-0.972-1.12-1.383-1.683c-0.485-0.71-1.011-1.605-1.343-2.392
			c-0.898-2.091-1.35-4.409-2.318-6.501c-0.448-0.973-1.232-1.982-1.866-2.877c-0.713-1.01-1.497-1.719-2.058-2.914
			c-0.187-0.412-0.447-1.085-0.15-1.532c0.074-0.3,0.226-0.413,0.524-0.488c0.484-0.41,1.869,0.112,2.354,0.336
			c1.383,0.559,2.542,1.085,3.698,1.868c0.523,0.375,1.084,1.084,1.757,1.273h0.785c1.194,0.259,2.542,0.072,3.665,0.41
			c1.978,0.635,3.771,1.569,5.381,2.578c4.892,3.102,8.929,7.513,11.655,12.781c0.449,0.857,0.638,1.644,1.049,2.539
			c0.784,1.835,1.757,3.703,2.54,5.496c0.784,1.757,1.534,3.548,2.655,5.008c0.561,0.784,2.803,1.194,3.812,1.606
			c0.745,0.334,1.906,0.634,2.579,1.045c1.271,0.783,2.538,1.682,3.736,2.542C131.351,61.962,133.221,62.896,133.333,63.644"/>
		<path fill-rule="evenodd" clip-rule="evenodd" fill="#5D87A1" d="M95.216,31.168c-0.634,0-1.08,0.076-1.532,0.187v0.076h0.074
			c0.302,0.597,0.824,1.01,1.195,1.533c0.302,0.598,0.562,1.193,0.861,1.792c0.037-0.036,0.072-0.075,0.072-0.075
			c0.526-0.372,0.788-0.97,0.788-1.868c-0.225-0.263-0.262-0.522-0.449-0.785C96.002,31.655,95.515,31.468,95.216,31.168"/>
		<path fill="#F8971D" d="M136.896,104.929h0.771v-3.789h-1.161l-0.946,2.582l-1.031-2.582h-1.121v3.789h0.731v-2.884h0.042
			l1.079,2.884h0.557l1.079-2.884V104.929z M130.655,104.929h0.82v-3.146h1.073v-0.643h-3.008v0.643h1.114V104.929z"/>
	</g>
</g>
<g id="Layer_8" display="none">
	<g display="inline">
		<linearGradient id="SVGID_4_" gradientUnits="userSpaceOnUse" x1="24.0933" y1="33.4658" x2="117.9085" y2="127.2811">
			<stop  offset="0.2033" style="stop-color:#F89933"/>
			<stop  offset="1" style="stop-color:#A35731"/>
		</linearGradient>
		<rect x="24.338" y="33.222" fill="url(#SVGID_4_)" width="93.326" height="94.303"/>
		<path fill="#FFDD00" d="M38.578,105.429l13.221-43.151l0.264-7.925h13.217l14.88,51.076H70.156l-4.726-13.344H52.029
			l-4.012,13.344H38.578z M63.627,83.39c0,0-4.398-16.852-4.623-18.554c-0.244,1.633-4.511,18.554-4.511,18.554H63.627z"/>
		<path fill="#FFDD00" d="M83.631,58.744c0-1.514,0.546-2.817,1.637-3.908c1.091-1.091,2.393-1.637,3.908-1.637
			c1.537,0,2.855,0.541,3.959,1.62c1.102,1.081,1.652,2.388,1.652,3.925c0,1.537-0.551,2.851-1.652,3.942
			c-1.104,1.091-2.422,1.637-3.959,1.637c-1.516,0-2.817-0.557-3.908-1.67C84.177,61.54,83.631,60.236,83.631,58.744z"/>
		<rect x="83.781" y="67.721" fill="#FFDD00" width="10.471" height="37.708"/>
	</g>
</g>
<g id="Layer_11" display="none">
	<g display="inline">
		<defs>
			<path id="SVGID_5_" d="M36.854,33.672c-7.003,0-12.681,5.677-12.681,12.68v69.027c0,7.002,5.677,12.681,12.681,12.681h69.026
				c7.002,0,12.68-5.679,12.68-12.681V46.352c0-7.003-5.678-12.68-12.68-12.68H36.854z"/>
		</defs>
		<clipPath id="SVGID_6_">
			<use xlink:href="#SVGID_5_"  overflow="visible"/>
		</clipPath>
		
			<linearGradient id="SVGID_7_" gradientUnits="userSpaceOnUse" x1="0.0479" y1="141.6831" x2="0.8803" y2="141.6831" gradientTransform="matrix(97.8892 -75.6695 -75.6695 -97.8892 10743.7432 13987.7539)">
			<stop  offset="0" style="stop-color:#121134"/>
			<stop  offset="1" style="stop-color:#602D4F"/>
		</linearGradient>
		<polygon clip-path="url(#SVGID_6_)" fill="url(#SVGID_7_)" points="-21.498,68.977 83.255,-11.999 164.231,92.754 59.477,173.731 
					"/>
	</g>
	<g display="inline">
		<path fill="#FFFFFF" d="M46.87,51.313h27.562c15.601,0,18.972,11.09,18.972,15.468c0,8.856-5.021,11.121-7.529,12.137
			c3.81,1.074,9.988,4.323,9.988,15.585c0,3.221-0.406,15.914-20.718,15.914H46.87V51.313z M62.126,74.414h8.39
			c6.209,0,6.835-4.067,6.835-6.017c0-1.807-1.13-5.763-6.726-5.763h-8.499V74.414z M62.126,100.094h9.62
			c7.998,0,8.465-5.628,8.465-7.607c0-1.836-0.691-7.516-8.502-7.516h-9.583V100.094z"/>
	</g>
</g>
<g id="Layer_9" display="none">
	<g display="inline">
		<g>
			<g>
				<path fill="#1D1D1B" d="M73.779,70.206c-0.002,0.16,0,0.312-0.005,0.478c0.002,0.049,0.003,0.098,0.005,0.146
					c0.002-0.111,0.01-0.224,0.01-0.337C73.789,70.396,73.783,70.3,73.779,70.206z"/>
				<path fill="#1D1D1B" d="M52.39,81.127c5.853,0,10.597-4.265,10.597-10.315c0-0.108-0.013-0.215-0.016-0.322
					c-0.165,5.879-4.833,9.999-10.581,9.999l-4.118-0.161v0.641L52.39,81.127z"/>
				<path fill="#1D1D1B" d="M57.868,51.325c8.317,1.28,11.09,4.692,12.796,7.464c1.484,2.412,3.046,4.589,3.119,10.448
					c0.035-6.341-1.583-8.591-3.119-11.088c-1.707-2.772-4.479-6.185-12.796-7.464c-8.317-1.28-21.752,0-21.752,0v0.639
					C36.116,51.325,49.551,50.046,57.868,51.325z"/>
			</g>
			<g>
				<linearGradient id="SVGID_8_" gradientUnits="userSpaceOnUse" x1="97.1572" y1="75.73" x2="96.8277" y2="94.606">
					<stop  offset="0" style="stop-color:#1D1D1B"/>
					<stop  offset="0.0896" style="stop-color:#1D1D1B;stop-opacity:0.9104"/>
					<stop  offset="1" style="stop-color:#1D1D1B;stop-opacity:0"/>
				</linearGradient>
				<path fill="url(#SVGID_8_)" d="M92.718,79.93c-3.311-1.418-4.765-2.99-4.958-4.364c-0.225,1.507,1.12,3.361,4.958,5.004
					c3.83,1.642,13.331,5.272,13.524,14.2c0.002-0.122,0.009-0.243,0.009-0.366C106.251,85.274,96.587,81.588,92.718,79.93z"/>
				<linearGradient id="SVGID_9_" gradientUnits="userSpaceOnUse" x1="86.6289" y1="94.2446" x2="86.5413" y2="99.261">
					<stop  offset="0" style="stop-color:#1D1D1B"/>
					<stop  offset="0.0896" style="stop-color:#1D1D1B;stop-opacity:0.9104"/>
					<stop  offset="1" style="stop-color:#1D1D1B;stop-opacity:0"/>
				</linearGradient>
				<path fill="url(#SVGID_9_)" d="M90.416,98.688c-4.92-0.022-13.021-4.604-13.021-4.604v0.641c0,0,8.102,4.581,13.021,4.604
					c3.633,0.018,5.664-1.204,5.385-3.03C95.559,97.763,93.605,98.704,90.416,98.688z"/>
				<linearGradient id="SVGID_10_" gradientUnits="userSpaceOnUse" x1="90.9473" y1="62.8457" x2="90.7071" y2="76.6058">
					<stop  offset="0" style="stop-color:#1D1D1B"/>
					<stop  offset="0.0896" style="stop-color:#1D1D1B;stop-opacity:0.9104"/>
					<stop  offset="1" style="stop-color:#1D1D1B;stop-opacity:0"/>
				</linearGradient>
				<path fill="url(#SVGID_10_)" d="M93.215,63.534c6.879-0.08,11.037,3.039,11.037,3.039v-0.64c0,0-4.158-3.119-11.037-3.039
					c-6.877,0.08-15.866,4.079-15.866,13.195c0,0.1,0.009,0.188,0.011,0.283C77.594,67.511,86.43,63.613,93.215,63.534z"/>
			</g>
		</g>
		<g>
			<g>
				<path fill="#FFFFFF" d="M52.39,58.383l-4.118,0.213v0.64l4.118-0.213c5.749,0,10.416,5.351,10.581,11.274
					c0.003-0.106,0.016-0.21,0.016-0.318C62.986,63.928,58.242,58.383,52.39,58.383z"/>
				<path fill="#FFFFFF" d="M73.783,69.046c-0.002,0.265,0,0.525-0.009,0.805c0.002,0.055,0.003,0.107,0.005,0.162
					C73.784,69.682,73.787,69.356,73.783,69.046z"/>
				<rect x="36.116" y="106.792" fill="#FFFFFF" width="12.156" height="0.641"/>
				<path fill="#FFFFFF" d="M73.452,73.449c-0.218,1.163-0.543,2.139-0.948,2.964c-3.114,7.197-11.565,12.36-21.51,12.36
					c-0.767,0-1.522-0.042-2.27-0.102c-0.287,0.064-0.452,0.102-0.452,0.102v0.64c0,0,0.165-0.036,0.452-0.102
					c0.748,0.061,1.503,0.102,2.27,0.102c9.945,0,18.396-5.164,21.51-12.36c0.405-0.825,0.73-1.799,0.948-2.965
					c0.218-1.023,0.337-2.074,0.337-3.148c0-0.102-0.006-0.201-0.01-0.302C73.758,71.593,73.646,72.533,73.452,73.449z"/>
			</g>
			<g>
				<path fill="#FFFFFF" d="M88.657,90.052c4.694,2.202,6.888,4.382,7.144,6.054c0.285-1.731-1.824-4.196-7.144-6.693
					c-6.397-3.001-11.181-5.466-11.298-13.231c-0.002,0.118-0.011,0.236-0.011,0.356C77.349,84.535,82.18,87.013,88.657,90.052z"/>
				<path fill="#FFFFFF" d="M104.252,75.177c0,0-5.998-3.438-10.957-3.438c-3.336,0-5.823,1.598-5.535,3.635
					c0.256-1.722,2.558-2.995,5.535-2.995c4.959,0,10.957,3.438,10.957,3.438V75.177z"/>
				<path fill="#FFFFFF" d="M90.416,107.647c-9.03-0.081-13.021-3.84-13.021-3.84v0.64c0,0,3.991,3.76,13.021,3.84
					c9.031,0.08,15.835-4.799,15.835-13.436c0-0.094-0.007-0.183-0.009-0.273C106.051,102.984,99.318,107.725,90.416,107.647z"/>
			</g>
		</g>
		<linearGradient id="SVGID_11_" gradientUnits="userSpaceOnUse" x1="71.1826" y1="127.0708" x2="71.1826" y2="32.7041">
			<stop  offset="0" style="stop-color:#1B325E"/>
			<stop  offset="1" style="stop-color:#1F5EAC"/>
		</linearGradient>
		<rect x="24" y="32.704" fill="url(#SVGID_11_)" width="94.366" height="94.367"/>
		<g>
			<path fill="#5CCCF5" d="M73.774,70.312c0.185-6.972-1.51-9.292-3.11-11.894c-1.707-2.772-4.479-6.185-12.796-7.464
				c-8.317-1.28-21.752,0-21.752,0v56.3h12.156v-18.02c0,0,0.165-0.038,0.452-0.103c0.748,0.06,1.503,0.103,2.27,0.103
				c9.945,0,18.396-5.164,21.51-12.36c0.405-0.825,0.73-1.801,0.948-2.965c0.218-1.024,0.337-2.075,0.337-3.149
				C73.789,70.61,73.779,70.462,73.774,70.312z M52.39,80.757l-4.118-0.161V59.058l4.118-0.214c5.853,0,10.597,5.545,10.597,11.597
				C62.986,76.492,58.242,80.757,52.39,80.757z"/>
			<path fill="#5CCCF5" d="M104.252,66.202c0,0-4.158-3.119-11.037-3.039c-6.877,0.08-15.866,4.079-15.866,13.195
				c0,7.998,4.831,10.477,11.309,13.516c9.821,4.607,8.717,9.117,1.759,9.083c-4.92-0.021-13.021-4.604-13.021-4.604v9.916
				c0,0,3.991,3.76,13.021,3.84c9.031,0.079,15.835-4.799,15.835-13.437c0-9.129-9.664-12.814-13.533-14.473
				c-8.22-3.521-5.009-7.999,0.577-7.999c4.959,0,10.957,3.438,10.957,3.438V66.202z"/>
		</g>
	</g>
</g>
<g id="Layer_10" display="none">
	<g display="inline">
		<path fill="#005A8F" d="M93.625,49.129c-4.944-3.078-9.608-4.291-14.272-7.369c-2.892-1.959-6.903-6.623-10.262-10.635
			c-0.653,6.437-2.612,9.049-4.85,10.915c-4.758,3.731-7.743,4.851-11.848,7.089c-3.451,1.772-22.202,12.967-22.202,37.034
			s20.243,41.791,42.725,41.791c22.48,0,41.978-16.325,41.978-41.045C114.894,62.189,96.609,50.996,93.625,49.129z"/>
		<path fill="#FFFFFF" d="M86.049,107.048c1.492,0,3.077,0.094,4.197,0.839c1.119,0.747,1.771,2.427,2.146,3.359
			c0.372,0.933,0,1.492-0.747,1.865c-0.652,0.373-0.746,0.188-1.398-1.026c-0.654-1.212-1.213-2.425-4.479-2.425
			c-3.264,0-4.291,1.119-5.877,2.425c-1.585,1.307-2.145,1.772-2.705,1.026c-0.559-0.746-0.372-1.492,0.653-2.425
			c1.026-0.933,2.706-2.426,4.291-3.079C83.716,106.956,84.555,107.048,86.049,107.048L86.049,107.048z"/>
		<path fill="#FFFFFF" d="M70.562,117.683c1.865,1.492,4.664,2.705,10.635,2.705s10.168-1.679,12.033-3.078
			c0.84-0.653,1.213-0.093,1.307,0.279c0.094,0.374,0.279,0.933-0.373,1.586c-0.467,0.467-4.758,3.451-9.795,3.918
			s-11.848,0.746-15.952-2.984c-0.653-0.653-0.467-1.587,0-1.96c0.466-0.373,0.839-0.652,1.399-0.652S70.283,117.497,70.562,117.683
			L70.562,117.683z"/>
		<path fill="#0E78BE" d="M47.708,110.593c7.089-0.094,8.396-1.306,14.646-4.104c33.769-15.112,40.019-28.918,41.232-32.089
			c1.213-3.172,2.984-8.303,1.119-13.993c-0.361-1.099-0.623-1.98-0.812-2.69c-4.488-5.018-8.943-7.756-10.289-8.597
			c-4.85-3.078-9.607-4.291-14.271-7.369c-2.893-1.866-6.904-6.624-10.262-10.634c-0.653,6.436-2.519,9.142-4.851,10.914
			c-4.757,3.731-7.743,4.851-11.847,7.089c-3.452,1.866-22.202,12.967-22.202,37.034c0,7.685,2.064,14.722,5.604,20.742l0.926-0.032
			C38.66,108.634,41.738,110.687,47.708,110.593z"/>
		<path fill="#044A75" d="M93.604,49.119c-4.85-3.078-9.607-4.291-14.271-7.369c-2.893-1.866-6.904-6.624-10.262-10.634
			c-0.653,6.436-2.519,9.142-4.851,10.914c-4.757,3.731-7.743,4.851-11.847,7.089c-3.452,1.866-22.202,12.967-22.202,37.034
			c0,7.685,2.064,14.722,5.604,20.742c7.55,12.836,21.816,21.05,37.119,21.05c22.482,0,41.979-16.325,41.979-41.046
			c0-13.575-5.514-23.07-10.98-29.183C99.404,52.699,94.949,49.96,93.604,49.119z M104.943,60.04
			c6.124,7.657,9.229,16.694,9.229,26.859c0,5.899-1.124,11.472-3.339,16.563c-2.103,4.829-5.129,9.108-8.997,12.719
			c-7.646,7.134-17.925,11.063-28.942,11.063c-5.451,0-10.799-1.041-15.898-3.095c-5.008-2.018-9.521-4.906-13.414-8.584
			c-8.197-7.749-12.712-18.194-12.712-29.413c0-9.991,3.244-18.871,9.639-26.389c4.887-5.744,10.156-8.927,12.195-10.029
			c0.99-0.54,1.918-1.016,2.816-1.477c2.815-1.445,5.474-2.81,9.13-5.677c1.95-1.482,4.027-3.829,4.912-9.789
			c3.082,3.665,6.658,7.784,9.389,9.546c2.426,1.601,4.913,2.722,7.319,3.807c2.275,1.026,4.629,2.087,6.957,3.565
			c0.004,0.003,0.088,0.055,0.088,0.055C100.123,54.015,103.751,58.549,104.943,60.04z"/>
		<path fill="#8ACBF0" d="M69.536,32.981c1.307,3.825,1.12,5.784,1.12,6.623c0,0.84-0.467,3.079-1.959,4.198
			c-0.653,0.466-0.84,0.84-0.84,0.933c0,0.374,0.84,0.653,0.84,1.493c0,1.026-0.467,3.078-5.411,8.022
			c-4.943,4.944-12.033,9.329-17.537,12.034c-5.504,2.705-8.116,2.519-8.862,1.212s0.28-4.198,3.731-8.022
			c3.452-3.825,14.366-9.329,14.366-9.329l13.62-9.515l0.746-3.638"/>
		<path fill="#FFFFFF" d="M69.536,32.888c-0.839,6.157-2.705,8.022-5.223,9.981c-4.198,3.172-8.303,5.131-9.235,5.597
			c-2.426,1.213-11.194,6.063-15.766,13.06c-1.399,2.146,0,2.985,0.28,3.172c0.28,0.187,3.452,0.56,10.261-3.545
			c6.81-4.104,9.795-6.53,13.62-10.541c2.052-2.146,2.332-3.358,2.332-3.918c0-0.653-0.466-0.933-1.212-1.119
			c-0.374-0.093-0.467-0.28,0-0.56c0.466-0.28,2.425-1.212,2.892-1.586c0.466-0.373,2.705-1.865,2.798-4.291
			C70.377,36.712,70.189,35.033,69.536,32.888L69.536,32.888z"/>
		<path fill="#FFFFFF" d="M48.548,100.706c0.093-7.276,6.903-14.086,15.485-14.18c10.914-0.093,18.471,10.821,23.974,10.728
			c4.664-0.093,13.62-9.234,18.004-9.234c4.664,0,5.97,4.851,5.97,7.742s-0.933,8.115-3.171,11.381
			c-2.239,3.265-3.638,4.478-6.25,4.291c-3.358-0.28-10.075-10.728-14.366-10.914c-5.41-0.187-17.164,11.287-26.399,11.287
			c-5.597,0-7.276-0.84-9.143-2.052C49.854,107.794,48.455,104.81,48.548,100.706L48.548,100.706z"/>
		<path fill="none" d="M104.705,60.407c1.865,5.69,0.094,10.821-1.119,13.993c-1.213,3.171-7.463,16.977-41.232,32.089
			c-6.25,2.799-7.556,4.011-14.646,4.104c-5.97,0.094-9.049-1.959-11.007-3.73l-0.926,0.032c7.55,12.836,21.816,21.05,37.119,21.05
			c22.482,0,41.979-16.325,41.979-41.046c0-13.575-5.514-23.07-10.98-29.183C104.082,58.426,104.344,59.308,104.705,60.407z"/>
	</g>
</g>
<g id="Layer_16">
	<rect fill-rule="evenodd" clip-rule="evenodd" width="142.232" height="141.732"/>
</g>
<g id="Layer_12">
	<path fill="#FFFFFF" d="M30.954,4.763L5.722,29.996L45.793,69.9l25.15-25.147l-3.856-3.856l-9.892,9.975l-3.856-3.856l9.975-9.892
		l-4.275-4.275l-7.209,7.294l-3.856-3.856l7.294-7.208l-4.275-4.278L41.1,34.775l-3.856-3.857l9.975-9.892l-4.275-4.275
		l-7.208,7.294l-3.857-3.857l7.294-7.211L30.954,4.763z M119.985,8.702c-3.344,0-6.67,1.309-9.223,3.857l-4.777,4.696l-47.03,47.028
		l-9.391,9.391l-33.364,33.449c-0.533,0.355-0.916,0.891-1.091,1.508l-5.363,20.12c-0.372,1.436,0.492,2.898,1.926,3.27
		c0.44,0.115,0.903,0.115,1.344,0l20.12-5.363c0.45-0.145,0.854-0.405,1.174-0.755l0.167-0.085c0.125-0.128,0.237-0.269,0.334-0.42
		l89.7-89.617v-0.083l1.763-1.761c1.387-1.389,2.934-2.934,2.934-2.934c5.092-5.098,5.087-13.346,0-18.445
		C126.65,10.008,123.326,8.702,119.985,8.702z M119.985,14.068c2.054,0,3.998,0.812,5.448,2.264c2.998,3,3,7.897,0,10.897
		c-0.348,0.343-0.629,0.63-0.923,0.923l-10.897-10.898l0.923-0.923C115.994,14.877,117.927,14.068,119.985,14.068z M99.278,72.5
		l-7.209,7.209l-2.264-2.265L71.781,95.469l39.989,39.989l25.233-25.232l-5.534-5.534l-7.209,7.209l-3.856-3.771l7.294-7.294
		l-4.275-4.19l-9.893,9.893l-3.856-3.774l9.976-9.975l-4.275-4.193l-7.21,7.21l-3.856-3.771l7.295-7.294l-4.274-4.192l-9.893,9.892
		l-3.856-3.771l9.974-9.977L99.278,72.5z M19.134,114.5l8.131,8.132l-11.148,3.017L19.134,114.5z"/>
</g>
<g id="Layer_13" display="none">
	<path display="inline" fill="#FFFFFF" d="M20.769,14.078c-8.227,0-15.001,6.773-15.001,15v80.001
		c0,8.227,6.774,15.001,15.001,15.001h99.998c8.227,0,15.001-6.774,15.001-15.001V29.078c0-8.227-6.774-15-15.001-15H20.769z
		 M20.769,34.078h45v25h-45V34.078z M25.768,39.078v15.001h5V39.078H25.768z M45.768,39.078v15.001h5V39.078H45.768z M88.267,39.078
		c4.002,0,7.501,3.5,7.501,7.5s-3.499,7.5-7.501,7.5c-3.999,0-7.5-3.5-7.5-7.5S84.268,39.078,88.267,39.078z M113.267,39.078
		c4.001,0,7.5,3.5,7.5,7.5s-3.499,7.5-7.5,7.5c-3.999,0-7.501-3.5-7.501-7.5S109.268,39.078,113.267,39.078z M55.767,44.079v10
		h5.002v-10H55.767z M35.769,49.078v5.001h4.997v-5.001H35.769z M15.767,74.078h15v29.999h9.999V74.078h5.002v29.999h9.999V74.078
		h5.002v29.999h9.999V74.078h15.001v29.999h9.999V74.078h5.002v29.999h9.998V74.078h15.001v35.001c0,2.772-2.229,4.999-5.002,4.999
		H20.769c-2.773,0-5.002-2.227-5.002-4.999V74.078z"/>
</g>
<g id="Layer_14" display="none">
	<path display="inline" fill="#FFFFFF" d="M20.261,14.232c-4.279,0-7.761,3.482-7.761,7.761v77.608c0,4.28,3.481,7.762,7.761,7.762
		h103.479c4.279,0,7.761-3.481,7.761-7.762V21.993c0-4.278-3.481-7.761-7.761-7.761H20.261z M25.435,27.167h93.131v67.261H25.435
		V27.167z M57.206,38.242L36.51,58.938l-1.779,1.859l1.779,1.859l20.696,20.695l3.719-3.719L42.088,60.797l18.836-18.836
		L57.206,38.242z M86.794,38.242l-3.719,3.719l18.837,18.836L83.075,79.633l3.719,3.719l20.696-20.695l1.778-1.859l-1.778-1.859
		L86.794,38.242z M59.065,109.95v10.348h25.869V109.95H59.065z M33.196,112.537c-0.768,0-1.531,0.303-2.021,0.889L18.24,128.948
		c-0.644,0.772-0.748,1.925-0.323,2.829c0.427,0.909,1.339,1.455,2.344,1.455h103.479c1.005,0,1.92-0.546,2.345-1.455
		c0.427-0.909,0.318-2.057-0.324-2.829l-12.935-15.522c-0.495-0.586-1.253-0.889-2.021-0.889H90.108v7.761v5.174h-5.174H59.065
		h-5.174v-5.174v-7.761H33.196z"/>
</g>
<g id="Layer_15" display="none">
	<path display="inline" fill="#FFFFFF" d="M104.807,13.995c-1,0.088-1.872,0.729-2.55,1.7l-27.908,38.96
		c-1.355,1.959-0.125,6.112,4.674,10.91c4.8,4.791,9.378,6.582,11.334,5.242L129.6,43.037c1.966-1.346,2.245-3.714,0.566-5.383
		l-22.383-22.526C106.941,14.287,105.808,13.906,104.807,13.995z M65.989,63.863c-0.394-0.025-0.797-0.033-1.275,0.142
		c-56.828,20.72-22.618,45.406-50.151,66.728c58.511,0,71.402-13.37,71.402-49.16c-1.103-2.355-6.464-3.488-11.616-8.5
		C69.836,68.685,68.751,64.049,65.989,63.863z"/>
</g>
</svg>
