<?xml version="1.0" encoding="utf-8"?>
<!-- Generator: Adobe Illustrator 15.0.0, SVG Export Plug-In . SVG Version: 6.00 Build 0)  -->
<!DOCTYPE svg PUBLIC "-//W3C//DTD SVG 1.1//EN" "http://www.w3.org/Graphics/SVG/1.1/DTD/svg11.dtd">
<svg version="1.1" xmlns="http://www.w3.org/2000/svg" xmlns:xlink="http://www.w3.org/1999/xlink" x="0px" y="0px"
	 width="141.732px" height="141.732px" viewBox="0 0 141.732 141.732" enable-background="new 0 0 141.732 141.732"
	 xml:space="preserve">
<g id="Layer_1" display="none">
	<polygon display="inline" fill="#E6A329" points="111.142,36.396 70.866,36.396 30.591,36.396 38.139,118.281 70.866,127.559 
		103.582,118.281 	"/>
	<polygon display="inline" fill="#F1BF22" points="70.866,43.066 70.866,120.625 97.368,113.112 103.822,43.066 	"/>
	<polygon display="inline" fill="#FFFFFF" points="91.951,53.114 51.188,53.114 48.355,83.774 48.415,83.582 83.041,83.582 
		81.911,96.55 70.866,99.735 59.652,96.502 58.979,88.654 48.799,88.654 50.254,104.338 70.866,110.192 91.479,104.338 
		94.315,73.558 57.573,73.558 58.041,63.294 83.544,63.294 83.919,69.169 94.19,69.169 	"/>
	<path display="inline" fill="#EBEBEB" d="M70.866,53.114H51.188l-2.833,30.66l0.061-0.192h22.451V73.558H58.991l0.468-10.264
		h11.408V53.114z M58.979,88.654h-10.18l1.454,15.685l20.613,5.841V99.735l-11.214-3.232L58.979,88.654z"/>
	<polygon display="inline" points="63.028,24.317 55.865,24.317 55.865,29.461 63.028,29.461 66.863,29.461 68.161,29.461 
		68.161,14.173 63.028,14.173 	"/>
	<g display="inline">
		<defs>
			<rect id="SVGID_1_" width="141.732" height="141.732"/>
		</defs>
		<clipPath id="SVGID_2_">
			<use xlink:href="#SVGID_1_"  overflow="visible"/>
		</clipPath>
		<path clip-path="url(#SVGID_2_)" d="M85.868,14.25H73.374v5.354c1.67,1.671,2.543,2.471,4.961,4.889
			c-1.414,0-4.961,0.005-4.961,0.005v4.884h12.494v-4.885l-4.99-4.893h4.99V14.25z"/>
	</g>
</g>
<g id="Layer_2">
	<g>
		<g>
			<polygon fill="#010101" points="59.71,19.586 59.71,14.352 47.227,14.352 47.227,29.654 59.71,29.654 59.71,24.419 
				52.461,24.419 52.461,19.586 			"/>
			<polygon fill="#010101" points="77.43,14.352 64.945,14.352 64.945,19.725 70.154,24.419 64.945,24.419 64.945,29.654 
				77.43,29.654 77.43,24.559 72.694,19.586 77.43,19.586 			"/>
			<polygon fill="#010101" points="95.552,14.352 83.067,14.352 83.067,19.725 88.075,24.419 83.067,24.419 83.067,29.654 
				95.552,29.654 95.552,24.559 90.614,19.586 95.552,19.586 			"/>
		</g>
		<polygon fill="#1072BA" points="38.448,118.848 31.118,36.639 111.659,36.639 104.323,118.833 71.34,127.979 		"/>
		<polygon fill="#2AAAE2" points="71.457,120.984 98.076,113.663 104.312,43.485 71.457,43.485 		"/>
		<polygon fill="#B4B4B4" points="47.896,73.687 48.779,83.756 71.457,73.687 71.457,63.604 		"/>
		<polygon fill="#E6E6E5" points="96.574,52.84 71.457,63.604 71.457,73.687 95.707,62.908 		"/>
		<polygon fill="#E6E6E5" points="71.457,100.029 71.38,100.042 60.132,97.021 59.397,88.992 49.276,88.992 50.688,104.812 
			71.376,110.54 71.457,110.522 		"/>
		<polygon fill="#FFFFFF" points="71.457,73.687 71.457,83.756 83.771,83.756 82.65,96.918 71.457,100.04 71.457,110.529 
			92.076,104.8 94.791,73.687 		"/>
		<polygon fill="#E6E6E5" points="71.457,73.687 47.896,73.687 48.779,83.756 71.457,83.756 		"/>
		<polygon fill="#E6E6E5" points="71.457,62.908 71.457,52.84 71.354,52.84 46.106,52.84 46.999,62.908 		"/>
		<polygon fill="#FFFFFF" points="71.457,52.84 71.457,62.781 71.457,62.908 95.707,62.908 96.574,52.84 		"/>
	</g>
</g>
</svg>
