<?xml version="1.0" encoding="utf-8"?>
<!-- Generator: Adobe Illustrator 15.0.0, SVG Export Plug-In . SVG Version: 6.00 Build 0)  -->
<!DOCTYPE svg PUBLIC "-//W3C//DTD SVG 1.1//EN" "http://www.w3.org/Graphics/SVG/1.1/DTD/svg11.dtd">
<svg version="1.1" xmlns="http://www.w3.org/2000/svg" xmlns:xlink="http://www.w3.org/1999/xlink" x="0px" y="0px"
	 width="141.732px" height="141.732px" viewBox="0 0 141.732 141.732" enable-background="new 0 0 141.732 141.732"
	 xml:space="preserve">
<g id="Layer_1" display="none">
	<polygon display="inline" fill="#E6A329" points="111.142,36.396 70.866,36.396 30.591,36.396 38.139,118.281 70.866,127.559 
		103.582,118.281 	"/>
	<polygon display="inline" fill="#F1BF22" points="70.866,43.066 70.866,120.625 97.368,113.112 103.822,43.066 	"/>
	<polygon display="inline" fill="#FFFFFF" points="91.951,53.114 51.188,53.114 48.355,83.774 48.415,83.582 83.041,83.582 
		81.911,96.55 70.866,99.735 59.652,96.502 58.979,88.654 48.799,88.654 50.254,104.338 70.866,110.192 91.479,104.338 
		94.315,73.558 57.573,73.558 58.041,63.294 83.544,63.294 83.919,69.169 94.19,69.169 	"/>
	<path display="inline" fill="#EBEBEB" d="M70.866,53.114H51.188l-2.833,30.66l0.061-0.192h22.451V73.558H58.991l0.468-10.264
		h11.408V53.114z M58.979,88.654h-10.18l1.454,15.685l20.613,5.841V99.735l-11.214-3.232L58.979,88.654z"/>
	<polygon display="inline" points="63.028,24.317 55.865,24.317 55.865,29.461 63.028,29.461 66.863,29.461 68.161,29.461 
		68.161,14.173 63.028,14.173 	"/>
	<g display="inline">
		<defs>
			<rect id="SVGID_1_" width="141.732" height="141.732"/>
		</defs>
		<clipPath id="SVGID_2_">
			<use xlink:href="#SVGID_1_"  overflow="visible"/>
		</clipPath>
		<path clip-path="url(#SVGID_2_)" d="M85.868,14.25H73.374v5.354c1.67,1.671,2.543,2.471,4.961,4.889
			c-1.414,0-4.961,0.005-4.961,0.005v4.884h12.494v-4.885l-4.99-4.893h4.99V14.25z"/>
	</g>
</g>
<g id="Layer_2" display="none">
	<g display="inline">
		<g>
			<polygon fill="#010101" points="59.71,19.586 59.71,14.352 47.227,14.352 47.227,29.654 59.71,29.654 59.71,24.419 
				52.461,24.419 52.461,19.586 			"/>
			<polygon fill="#010101" points="77.43,14.352 64.945,14.352 64.945,19.725 70.154,24.419 64.945,24.419 64.945,29.654 
				77.43,29.654 77.43,24.559 72.694,19.586 77.43,19.586 			"/>
			<polygon fill="#010101" points="95.552,14.352 83.067,14.352 83.067,19.725 88.075,24.419 83.067,24.419 83.067,29.654 
				95.552,29.654 95.552,24.559 90.614,19.586 95.552,19.586 			"/>
		</g>
		<polygon fill="#1072BA" points="38.448,118.848 31.118,36.639 111.659,36.639 104.323,118.833 71.34,127.979 		"/>
		<polygon fill="#2AAAE2" points="71.457,120.984 98.076,113.663 104.312,43.485 71.457,43.485 		"/>
		<polygon fill="#B4B4B4" points="47.896,73.687 48.779,83.756 71.457,73.687 71.457,63.604 		"/>
		<polygon fill="#E6E6E5" points="96.574,52.84 71.457,63.604 71.457,73.687 95.707,62.908 		"/>
		<polygon fill="#E6E6E5" points="71.457,100.029 71.38,100.042 60.132,97.021 59.397,88.992 49.276,88.992 50.688,104.812 
			71.376,110.54 71.457,110.522 		"/>
		<polygon fill="#FFFFFF" points="71.457,73.687 71.457,83.756 83.771,83.756 82.65,96.918 71.457,100.04 71.457,110.529 
			92.076,104.8 94.791,73.687 		"/>
		<polygon fill="#E6E6E5" points="71.457,73.687 47.896,73.687 48.779,83.756 71.457,83.756 		"/>
		<polygon fill="#E6E6E5" points="71.457,62.908 71.457,52.84 71.354,52.84 46.106,52.84 46.999,62.908 		"/>
		<polygon fill="#FFFFFF" points="71.457,52.84 71.457,62.781 71.457,62.908 95.707,62.908 96.574,52.84 		"/>
	</g>
</g>
<g id="Layer_3" display="none">
	<polygon display="inline" fill="#E44F26" points="37.755,119.382 30.384,36.701 111.383,36.701 104.004,119.369 70.835,128.565 	
		"/>
	<polygon display="inline" fill="#F1662A" points="70.884,121.536 97.688,114.103 103.993,43.462 70.884,43.462 	"/>
	<polygon display="inline" fill="#EBEBEB" points="70.884,74.127 57.465,74.127 56.539,63.744 70.884,63.744 70.884,53.601 
		70.849,53.601 45.456,53.601 45.699,56.323 48.191,84.266 70.884,84.266 	"/>
	<polygon display="inline" fill="#EBEBEB" points="70.884,100.464 70.84,100.473 59.545,97.424 58.824,89.339 53.336,89.339 
		48.645,89.339 50.065,105.26 70.837,111.026 70.884,111.013 	"/>
	<path display="inline" fill="#010101" d="M37.919,14.232h5.154v5.091h4.714v-5.091h5.153V29.65h-5.153v-5.163h-4.714v5.163H37.92
		V14.232H37.919z"/>
	<path display="inline" fill="#010101" d="M59.717,19.345h-4.536v-5.113h14.229v5.113h-4.538V29.65h-5.154V19.345L59.717,19.345z"/>
	<path display="inline" fill="#010101" d="M71.668,14.232h5.374l3.306,5.417l3.3-5.417h5.377V29.65h-5.131v-7.643l-3.546,5.482
		h-0.09l-3.548-5.482v7.643h-5.042V14.232z"/>
	<path display="inline" fill="#010101" d="M91.588,14.232h5.155v10.321h7.248v5.097H91.588V14.232z"/>
	<polygon display="inline" fill="#FFFFFF" points="70.849,74.127 70.849,84.266 83.335,84.266 82.158,97.418 70.849,100.471 
		70.849,111.022 91.638,105.26 91.79,103.545 94.173,76.849 94.42,74.127 91.687,74.127 	"/>
	<polygon display="inline" fill="#FFFFFF" points="70.849,53.601 70.849,59.9 70.849,63.717 70.849,63.744 95.31,63.744 
		95.31,63.744 95.343,63.744 95.546,61.464 96.008,56.323 96.251,53.601 	"/>
</g>
<g id="Layer_4" display="none">
	<g display="inline">
		<path fill-rule="evenodd" clip-rule="evenodd" d="M9.097,79.016c0,0.812,0,1.709-0.706,2.713c-0.595,0.775-1.522,1.407-2.75,1.407
			c-1.002,0-1.894-0.445-2.491-1.037c-1-1.04-1.035-2.23-1.073-3.121V40.352c0.039-0.894,0.073-2.083,1.073-3.119
			c0.598-0.596,1.489-1.044,2.491-1.044c1.228,0,2.155,0.634,2.75,1.413c0.706,1.004,0.706,1.893,0.706,2.708V79.016L9.097,79.016z"
			/>
		<path fill-rule="evenodd" clip-rule="evenodd" d="M20.81,79.016c0,0.812,0,1.709-0.706,2.713
			c-0.593,0.775-1.521,1.407-2.745,1.407c-1.004,0-1.895-0.445-2.492-1.037c-1.002-1.04-1.036-2.23-1.072-3.121V40.352
			c0.036-0.894,0.069-2.083,1.072-3.119c0.597-0.596,1.487-1.044,2.492-1.044c1.224,0,2.151,0.634,2.745,1.413
			c0.706,1.004,0.706,1.893,0.706,2.708V79.016L20.81,79.016z"/>
		<path fill-rule="evenodd" clip-rule="evenodd" d="M32.529,71.511c0,0.818,0,1.713-0.707,2.713
			c-0.594,0.783-1.519,1.415-2.748,1.415c-1.004,0-1.896-0.451-2.49-1.037c-1.001-1.044-1.038-2.234-1.072-3.125V32.853
			c0.035-0.896,0.071-2.087,1.072-3.123c0.595-0.595,1.486-1.039,2.49-1.039c1.229,0,2.154,0.635,2.748,1.409
			c0.707,1.004,0.707,1.895,0.707,2.712V71.511L32.529,71.511z"/>
		<path fill-rule="evenodd" clip-rule="evenodd" d="M44.243,79.016c0,0.812,0,1.709-0.706,2.713
			c-0.593,0.775-1.52,1.407-2.744,1.407c-1.01,0-1.896-0.445-2.49-1.037c-1.005-1.04-1.038-2.23-1.075-3.121V40.352
			c0.037-0.894,0.069-2.083,1.075-3.119c0.593-0.596,1.48-1.044,2.49-1.044c1.224,0,2.151,0.634,2.744,1.413
			c0.706,1.004,0.706,1.893,0.706,2.708V79.016L44.243,79.016z"/>
		<path fill-rule="evenodd" clip-rule="evenodd" d="M55.961,71.511c0,0.818,0,1.713-0.704,2.713
			c-0.597,0.783-1.527,1.415-2.754,1.415c-1.001,0-1.887-0.451-2.482-1.037c-1.005-1.044-1.04-2.234-1.083-3.125V32.853
			c0.043-0.896,0.078-2.087,1.083-3.123c0.596-0.595,1.481-1.039,2.482-1.039c1.227,0,2.158,0.635,2.754,1.409
			c0.704,1.004,0.704,1.895,0.704,2.712V71.511L55.961,71.511z"/>
		<path fill-rule="evenodd" clip-rule="evenodd" d="M67.675,79.016c0,0.812,0,1.709-0.708,2.713
			c-0.59,0.775-1.518,1.407-2.747,1.407c-0.999,0-1.895-0.445-2.485-1.037c-1.001-1.04-1.039-2.23-1.079-3.121V40.352
			c0.04-0.894,0.078-2.083,1.079-3.119c0.59-0.596,1.486-1.044,2.485-1.044c1.229,0,2.156,0.634,2.747,1.413
			c0.708,1.004,0.708,1.893,0.708,2.708V79.016L67.675,79.016z"/>
		<path fill-rule="evenodd" clip-rule="evenodd" d="M79.394,79.016c0,0.812,0,1.709-0.708,2.713
			c-0.591,0.775-1.517,1.407-2.746,1.407c-1.004,0-1.895-0.445-2.488-1.037c-1.005-1.04-1.042-2.23-1.08-3.121V40.352
			c0.038-0.894,0.075-2.083,1.08-3.119c0.594-0.596,1.484-1.044,2.488-1.044c1.229,0,2.155,0.634,2.746,1.413
			c0.708,1.004,0.708,1.893,0.708,2.708V79.016L79.394,79.016z"/>
		<path fill-rule="evenodd" clip-rule="evenodd" d="M136.209,47.928c0.82,0,1.709,0,2.71,0.705c0.777,0.595,1.413,1.522,1.413,2.748
			c0,1.003-0.444,1.896-1.039,2.49c-1.035,0.998-2.229,1.035-3.119,1.074H87.339c-0.896-0.039-2.086-0.076-3.124-1.074
			c-0.591-0.594-1.035-1.487-1.035-2.49c0-1.226,0.633-2.153,1.408-2.748c1.005-0.705,1.897-0.705,2.709-0.705H136.209
			L136.209,47.928z"/>
		<path fill-rule="evenodd" clip-rule="evenodd" d="M136.209,36.21c0.82,0,1.709,0,2.71,0.704c0.777,0.59,1.413,1.521,1.413,2.75
			c0,1-0.444,1.89-1.039,2.484c-1.035,1.007-2.229,1.044-3.119,1.078H87.339c-0.896-0.034-2.086-0.071-3.124-1.078
			c-0.591-0.594-1.035-1.483-1.035-2.484c0-1.229,0.633-2.16,1.408-2.75c1.005-0.704,1.897-0.704,2.709-0.704H136.209L136.209,36.21
			z"/>
		<path fill-rule="evenodd" clip-rule="evenodd" d="M136.209,71.368c0.82,0,1.709,0,2.71,0.702c0.777,0.594,1.413,1.524,1.413,2.746
			c0,1.004-0.444,1.895-1.039,2.491c-1.035,0.999-2.229,1.035-3.119,1.077H87.339c-0.896-0.042-2.086-0.078-3.124-1.077
			c-0.591-0.597-1.035-1.487-1.035-2.491c0-1.222,0.633-2.152,1.408-2.746c1.005-0.702,1.897-0.702,2.709-0.702H136.209
			L136.209,71.368z"/>
		<path fill-rule="evenodd" clip-rule="evenodd" d="M136.209,59.647c0.82,0,1.709,0,2.71,0.704c0.777,0.592,1.413,1.519,1.413,2.746
			c0,1.007-0.444,1.896-1.039,2.492c-1.035,1-2.229,1.041-3.119,1.077H87.339c-0.896-0.036-2.086-0.077-3.124-1.077
			c-0.591-0.597-1.035-1.485-1.035-2.492c0-1.227,0.633-2.153,1.408-2.746c1.005-0.704,1.897-0.704,2.709-0.704H136.209
			L136.209,59.647z"/>
		<path fill-rule="evenodd" clip-rule="evenodd" d="M25.575,103.731c0,0.856,0,1.896,0.67,2.786c0.6,0.779,1.602,1.265,2.604,1.265
			c1.891,0,2.674-1.23,3.079-1.935c1.596,1.483,3.235,2.048,5.424,2.048c5.238,0,8.615-4.057,8.615-10.029
			c0-7.169-4.42-10.139-8.321-10.139c-2.038,0-4.045,0.704-5.198,2.338v-5.869c0-2.336-1.784-3.453-3.376-3.453
			c-0.708,0-1.893,0.182-2.713,1.34c-0.669,0.893-0.743,1.827-0.782,3.602V103.731L25.575,103.731z M35.379,92.481
			c0.928,0,1.894,0.445,2.53,1.521c0.514,0.859,0.816,2.151,0.816,3.711c0,1.603-0.257,3.602-1.267,4.609
			c-0.523,0.522-1.295,0.814-2.04,0.814c-3.123,0-3.192-3.973-3.192-5.239c0-1.256,0.069-3.784,1.558-4.896
			C34.228,92.661,34.827,92.481,35.379,92.481L35.379,92.481z"/>
		<path fill-rule="evenodd" clip-rule="evenodd" d="M78.593,99.463c1.522,0,2.188-1.187,2.188-2.822
			c0-4.269-2.898-8.991-9.584-8.991c-6.794,0-10.023,4.529-10.023,9.997c0,5.078,2.672,10.389,9.949,10.389
			c5.798,0,8.584-3.154,8.584-4.935c0-1.451-1.339-2.6-2.932-2.6c-0.86,0-1.414,0.371-1.83,0.705
			c-0.515,0.407-0.922,0.895-1.484,1.227c-0.52,0.371-1.223,0.596-2.005,0.596c-3.042,0-3.376-2.752-3.451-3.565H78.593
			L78.593,99.463z M67.966,95.715c0.19-1.236,0.671-2.238,1.713-2.755c0.409-0.217,0.932-0.334,1.488-0.334
			c1.708,0,2.372,1.113,2.52,1.413c0.296,0.559,0.37,1.079,0.448,1.676H67.966L67.966,95.715z"/>
		<path fill-rule="evenodd" clip-rule="evenodd" d="M108.365,87.606c-5.277,0-10.361,2.793-10.361,10.075
			c0,2.894,0.669,5.307,2.522,7.427c0.896,1.038,2.901,2.974,7.58,2.974c5.831,0,10.362-3.2,10.362-10.216
			C118.469,93,115.874,87.606,108.365,87.606L108.365,87.606z M108.292,92.706c1.415,0,2.082,0.771,2.527,1.668
			c0.447,0.966,0.668,2.188,0.668,3.683c0,1.632-0.221,4.899-3.23,4.899c-3.164,0-3.275-3.979-3.275-5.203
			C104.981,96.562,105.066,92.706,108.292,92.706L108.292,92.706z"/>
		<path fill-rule="evenodd" clip-rule="evenodd" d="M121.397,91.703c0.035-0.708,0.035-1.449,0.408-2.157
			c0.521-1.007,1.526-1.675,2.786-1.675c0.962,0,1.747,0.377,2.341,1.004c0.777,0.822,0.854,1.602,0.928,2.193
			c0.401-0.519,0.742-0.97,1.373-1.522c1.302-1.152,3.046-1.705,4.79-1.705c1.781,0,3.526,0.698,4.677,2.075
			c1.112,1.338,1.265,2.565,1.265,3.824v10.029c0,0.782-0.072,1.594-0.629,2.525c-0.636,0.927-1.678,1.487-2.79,1.487
			s-2.005-0.406-2.675-1.376c-0.701-0.968-0.773-1.818-0.773-2.746v-7.726c0-0.559,0-1.19-0.338-1.777
			c-0.367-0.749-1.112-1.156-1.932-1.156c-0.629,0-1.144,0.219-1.558,0.553c-0.923,0.82-0.972,2.27-0.972,3.752v6.579
			c0,0.63-0.068,1.554-0.667,2.41c-0.625,0.927-1.663,1.487-2.854,1.487c-1.413-0.034-2.527-0.854-3.001-1.817
			c-0.344-0.711-0.379-1.45-0.379-2.08V91.703L121.397,91.703z"/>
		<path fill-rule="evenodd" clip-rule="evenodd" d="M55.955,100.831c0,0.597,0,1.189,0.855,1.376
			c0.186,0.035,1.188,0.111,1.409,0.183c0.711,0.223,1.559,1.083,1.559,2.486c0,3.16-3.414,3.16-4.014,3.16
			c-0.96,0-1.927-0.077-2.853-0.302c-3.793-0.958-4.017-3.822-4.017-6.044l0.038-16.785c0.04-0.893,0.077-2.083,1.08-3.124
			c0.592-0.589,1.483-1.038,2.488-1.038c1.227,0,2.153,0.631,2.75,1.411c0.704,1.004,0.704,1.889,0.704,2.712V100.831
			L55.955,100.831z"/>
		<path fill-rule="evenodd" clip-rule="evenodd" d="M12.136,92.644c1.234,0,2.094,0.785,2.5,1.645
			c0.414,0.82,0.643,2.354,0.643,3.81c0,3.212-0.979,4.144-1.459,4.52c-0.673,0.561-1.381,0.634-1.792,0.634
			c-1.539,0-2.403-1.12-2.788-2.241c-0.194-0.414-0.451-1.271-0.451-2.954c0-1.114,0.187-2.681,0.807-3.798
			C10.422,92.79,11.612,92.644,12.136,92.644L12.136,92.644z M15.163,90.301c-1.304-1.837-3.247-2.437-5.159-2.437
			c-5.893,0-8.353,5.153-8.353,10.233c0,6.311,3.657,9.785,8.036,9.785c3.573,0,4.995-1.873,5.664-2.743
			c0.15,1.914,1.925,2.642,3.099,2.642c1.155,0,2.357-0.575,2.988-1.811c0.444-0.931,0.487-2.085,0.487-3.24l-0.026-9.955
			c0-1.185-0.036-2.373-0.494-3.323c-0.654-1.265-1.875-1.847-3.068-1.847C17.157,87.606,15.313,88.337,15.163,90.301L15.163,90.301
			z"/>
		<path fill-rule="evenodd" clip-rule="evenodd" d="M85.57,86.235c0.039-0.972,0.115-2.045,0.965-3.051
			c0.333-0.364,1.08-1.111,2.449-1.111c1.709,0,3.382,1.15,3.382,3.715v2.373h1.485c1.523,0.04,2.411,0.818,2.455,2.343
			c0,0.779-0.299,1.447-0.784,1.817c-0.636,0.557-1.524,0.522-3.156,0.488v8.021c0,0.597,0,1.189,0.852,1.376
			c0.192,0.035,1.192,0.111,1.412,0.188c0.707,0.219,1.563,1.077,1.563,2.48c0,3.16-3.417,3.16-4.013,3.16
			c-0.966,0-1.928-0.077-2.863-0.302c-3.785-0.958-4.006-3.822-4.006-6.044c0-2.34,0.109-6.504,0.149-8.847
			c-1.228,0.034-1.711,0-2.111-0.109c-1.005-0.334-1.416-1.344-1.416-2.306c0-0.227,0-0.445,0.067-0.739
			c0.415-1.417,1.6-1.455,2.194-1.488h1.375V86.235L85.57,86.235z"/>
	</g>
</g>
<g id="Layer_5" display="none">
	<g display="inline">
		<polygon fill="#B4B4B4" points="70.702,36.941 27.221,52.243 34.092,109.208 70.748,129.357 107.593,108.936 114.462,51.972 		"/>
		<polygon fill="#A51E22" points="110.124,55.264 70.601,41.787 70.601,124.542 103.724,106.21 		"/>
		<polygon fill="#DC2226" points="32.1,55.508 37.988,106.456 70.6,124.542 70.6,41.785 		"/>
		<path fill="#F3F3F3" d="M81.48,85.841l-10.88,5.088H59.134l-5.39,13.481l-10.027,0.187l26.884-59.806L81.48,85.841z
			 M80.429,83.281l-9.756-19.314L62.67,82.948h7.93L80.429,83.281z"/>
		<polygon fill="#B4B4B4" points="70.6,44.792 70.672,63.967 79.753,82.963 70.62,82.963 70.6,90.917 83.228,90.929 89.128,104.599 
			98.722,104.776 		"/>
	</g>
</g>
<g id="Layer_6">
	
		<radialGradient id="SVGID_3_" cx="17.6357" cy="63.9834" r="87.8238" gradientTransform="matrix(1 0 0 1 26.52 -9.3066)" gradientUnits="userSpaceOnUse">
		<stop  offset="0" style="stop-color:#FFFFFF"/>
		<stop  offset="0.5" style="stop-color:#4C6B97"/>
		<stop  offset="1" style="stop-color:#000000"/>
	</radialGradient>
	<ellipse fill="url(#SVGID_3_)" cx="70.881" cy="77.489" rx="66.881" ry="35.182"/>
	<ellipse fill="#6181B6" cx="70.881" cy="77.489" rx="64.27" ry="32.57"/>
	<g>
		<path fill="#FFFFFF" d="M83.9,88.016l3.188-16.407c0.721-3.703,0.121-6.466-1.777-8.211c-1.84-1.689-4.961-2.51-9.546-2.51h-5.521
			l1.58-8.13c0.06-0.306-0.021-0.623-0.219-0.863c-0.199-0.241-0.496-0.381-0.808-0.381h-7.62c-0.5,0-0.931,0.354-1.026,0.846
			l-3.385,17.418c-0.309-1.959-1.066-3.645-2.281-5.034c-2.235-2.559-5.771-3.856-10.508-3.856h-14.77
			c-0.5,0-0.931,0.355-1.026,0.846L23.33,96.991c-0.06,0.308,0.021,0.623,0.219,0.864c0.199,0.24,0.495,0.381,0.807,0.381h7.681
			c0.5,0,0.93-0.354,1.026-0.846l1.657-8.529h5.717c3,0,5.52-0.324,7.488-0.965c2.012-0.654,3.863-1.764,5.496-3.292
			c1.319-1.212,2.409-2.568,3.248-4.032l-1.37,7.046c-0.06,0.306,0.021,0.623,0.22,0.863c0.198,0.241,0.494,0.38,0.806,0.38h7.621
			c0.5,0,0.93-0.354,1.025-0.845l3.761-19.354h5.229c2.229,0,2.881,0.445,3.057,0.635c0.162,0.174,0.496,0.787,0.121,2.72
			l-3.031,15.601c-0.06,0.306,0.021,0.623,0.219,0.863c0.199,0.241,0.494,0.38,0.807,0.38h7.742
			C83.373,88.861,83.805,88.507,83.9,88.016z M48.573,74.459c-0.479,2.46-1.38,4.215-2.681,5.215
			c-1.322,1.018-3.435,1.534-6.282,1.534h-3.404l2.462-12.667h4.4c3.233,0,4.536,0.691,5.059,1.271
			C48.853,70.616,49.007,72.224,48.573,74.459z"/>
		<path fill="#FFFFFF" d="M116.486,64.744c-2.234-2.559-5.771-3.856-10.51-3.856H91.209c-0.502,0-0.932,0.355-1.027,0.846
			L83.33,96.991c-0.061,0.308,0.02,0.623,0.219,0.864c0.199,0.24,0.494,0.381,0.807,0.381h7.68c0.502,0,0.932-0.354,1.027-0.846
			l1.656-8.529h5.717c3,0,5.521-0.324,7.488-0.965c2.014-0.654,3.865-1.764,5.496-3.292c1.363-1.252,2.484-2.655,3.332-4.175
			c0.848-1.517,1.457-3.209,1.811-5.031C119.436,70.905,118.738,67.321,116.486,64.744z M108.52,74.459
			c-0.477,2.46-1.379,4.215-2.68,5.215c-1.322,1.018-3.436,1.534-6.281,1.534h-3.404l2.461-12.667h4.402
			c3.232,0,4.535,0.691,5.059,1.271C108.801,70.616,108.955,72.224,108.52,74.459z"/>
	</g>
	<g>
		<path d="M43.069,67.497c2.918,0,4.863,0.539,5.835,1.616c0.971,1.077,1.203,2.926,0.694,5.547
			c-0.531,2.729-1.553,4.677-3.069,5.844c-1.516,1.166-3.822,1.749-6.919,1.749h-4.671l2.867-14.756H43.069z M24.356,97.191h7.68
			l1.822-9.375h6.579c2.902,0,5.291-0.303,7.166-0.914c1.875-0.608,3.579-1.632,5.112-3.066c1.287-1.184,2.329-2.489,3.125-3.915
			c0.797-1.427,1.363-3,1.697-4.722c0.812-4.181,0.2-7.436-1.837-9.767c-2.038-2.333-5.279-3.499-9.722-3.499h-14.77L24.356,97.191z
			"/>
		<path d="M63.178,52.559h7.62l-1.822,9.374h6.789c4.271,0,7.218,0.745,8.839,2.235s2.107,3.905,1.459,7.242l-3.188,16.406h-7.742
			l3.031-15.6c0.346-1.774,0.219-2.984-0.379-3.63c-0.6-0.645-1.875-0.968-3.824-0.968h-6.09l-3.925,20.198h-7.621L63.178,52.559z"
			/>
		<path d="M103.018,67.497c2.916,0,4.861,0.539,5.834,1.616s1.203,2.926,0.695,5.547c-0.531,2.729-1.553,4.677-3.07,5.844
			c-1.516,1.166-3.822,1.749-6.918,1.749h-4.672l2.867-14.756H103.018z M84.303,97.191h7.682l1.82-9.375h6.58
			c2.902,0,5.289-0.303,7.164-0.914c1.875-0.608,3.578-1.632,5.111-3.066c1.289-1.184,2.33-2.489,3.127-3.915
			c0.797-1.427,1.363-3,1.697-4.722c0.812-4.181,0.201-7.436-1.838-9.767c-2.037-2.333-5.277-3.499-9.721-3.499h-14.77
			L84.303,97.191z"/>
	</g>
</g>
</svg>
